<?xml version="1.0" standalone="no"?>
<!DOCTYPE svg PUBLIC "-//W3C//DTD SVG 20010904//EN"
 "http://www.w3.org/TR/2001/REC-SVG-20010904/DTD/svg10.dtd">
<svg version="1.0" xmlns="http://www.w3.org/2000/svg"
 width="114.000000pt" height="113.000000pt" viewBox="0 0 114.000000 113.000000"
 preserveAspectRatio="xMidYMid meet">

<g transform="translate(0.000000,113.000000) scale(0.100000,-0.100000)"
fill="#FFFFFF" stroke="none">
<path d="M277 1113 c-4 -3 -7 -62 -7 -130 0 -67 -3 -123 -6 -123 -4 0 -51 27
-104 60 -53 33 -104 60 -112 60 -36 0 -38 -22 -36 -301 l3 -273 95 -57 c52
-32 104 -59 116 -59 42 0 44 11 44 292 0 147 2 268 4 268 8 0 80 -43 99 -58
15 -14 17 -41 17 -302 0 -261 2 -288 18 -302 15 -13 224 -134 296 -172 21 -10
35 -12 48 -5 16 9 18 24 18 134 0 69 2 125 5 125 2 0 49 -27 103 -60 55 -33
106 -60 115 -60 35 0 37 22 35 301 l-3 273 -95 57 c-101 62 -133 71 -150 40
-6 -12 -10 -120 -10 -280 0 -144 -2 -261 -4 -261 -8 0 -80 43 -98 58 -16 14
-18 41 -18 302 0 261 -2 288 -17 302 -10 8 -83 52 -162 96 -132 76 -177 93
-194 75z"/>
</g>
</svg>
